<svg xmlns="http://www.w3.org/2000/svg" width="90.859" height="68.224" viewBox="0 0 90.859 68.224">
  <g id="Group_947" data-name="Group 947" transform="translate(-302.953 -209.04)">
    <g id="Group_148" data-name="Group 148" transform="translate(302.953 209.04)">
      <path id="Path_489" data-name="Path 489" d="M350.51,316.631a2.225,2.225,0,0,1-1.184-1.151A2.341,2.341,0,0,0,350.51,316.631Z" transform="translate(-331.471 -274.498)" fill="#fff"/>
      <path id="Path_490" data-name="Path 490" d="M354.556,220.626h0Z" transform="translate(-334.686 -216.165)" fill="#fff"/>
      <path id="Path_491" data-name="Path 491" d="M353.766,318.538a2.428,2.428,0,0,1-.535.083,1.887,1.887,0,0,1-.83-.151,1.807,1.807,0,0,0,.238.073A2.6,2.6,0,0,0,353.766,318.538Z" transform="translate(-333.362 -276.337)" fill="#fff"/>
      <path id="Path_492" data-name="Path 492" d="M357.386,315.85l-.027.057a1.944,1.944,0,0,1-1.374,1.016A2.31,2.31,0,0,0,357.386,315.85Z" transform="translate(-335.567 -274.726)" fill="#fff"/>
      <path id="Path_493" data-name="Path 493" d="M359.76,315.136a2.227,2.227,0,0,1-.125.268Z" transform="translate(-337.811 -274.287)" fill="#fff"/>
      <path id="Path_494" data-name="Path 494" d="M359.4,209.053H348.713l-3.658,0Q352.227,209.053,359.4,209.053Z" transform="translate(-328.845 -209.047)" fill="#fff"/>
      <path id="Path_495" data-name="Path 495" d="M393.809,211.273a2.228,2.228,0,1,0-4.456,0q0,13.652,0,27.3-4.437-10.027-8.874-20.054-1.774-4.01-3.55-8.023l0-.013-.089-.2c-.021-.046-.04-.092-.061-.138a1.72,1.72,0,0,0-.789-.8l-.019-.01a1.781,1.781,0,0,0-.523-.211,2.841,2.841,0,0,0-1.185,0,1.973,1.973,0,0,0-.313.116l-.006,0a.056.056,0,0,0-.021.009,1.775,1.775,0,0,0-.991.9c-.019.043-.039.085-.058.127-.031.067-.061.136-.092.2,0,0,0,0,0,.008q-3.168,6.983-6.334,13.964l-2.6-5.926q-1.838-4.189-3.678-8.377a2.242,2.242,0,0,0-4.073.532l-6.948,28.688-4.465-20.279q-.927-4.2-1.853-8.408a1.923,1.923,0,0,0-.759-1.137l-.015-.01a2.149,2.149,0,0,0-1.374-.489H316.219l-11.036,0a2.228,2.228,0,0,0,0,4.456l13.326,0h2.084v35.6c0,.036,0,.071,0,.107s0,.07.009.105c0,.018,0,.035.006.053s0,.034.008.052,0,.023.006.035a2.255,2.255,0,0,0,.1.376l.022.058c.006.018.013.036.021.052s.026.058.039.086a2.341,2.341,0,0,0,1.184,1.151,1.827,1.827,0,0,0,.238.073,2.6,2.6,0,0,0,1.127,0,.032.032,0,0,0,.015,0,2.311,2.311,0,0,0,1.4-1.073l0-.007.125-.268q6.885-14.588,13.77-29.175.615-1.3,1.227-2.6,2.569,11.663,5.137,23.324.927,4.205,1.852,8.408c.474,2.151,3.79,2.1,4.3,0q3.57-14.747,7.142-29.491l.526-2.169,5.541,12.618c.15.422.363.832.544,1.237.009.018.017.034.024.052q.416.947.832,1.894,1.664,3.79,3.329,7.579l3.641,8.291.1.224c.022.049.045.1.065.147a1.788,1.788,0,0,0,1.065.94,1.909,1.909,0,0,0,.859.164,2.392,2.392,0,0,0,.412-.053,2.123,2.123,0,0,0,1.582-1.189l0,0a2.162,2.162,0,0,0,.233-.983v-27.32q4.437,10.029,8.876,20.059l3.705,8.372a2.237,2.237,0,0,0,2.516,1.024,2.271,2.271,0,0,0,1.636-2.148Q393.809,230.18,393.809,211.273ZM322.823,213.5h0Zm2.227,25.674V213.5h12.115Q331.109,226.339,325.05,239.174Zm47.573-.652q-1.894-4.309-3.787-8.62,1.894-4.176,3.787-8.348Z" transform="translate(-302.953 -209.04)" fill="#fff"/>
    </g>
    <g id="Group_149" data-name="Group 149" transform="translate(312.831 255.356)">
      <path id="Path_496" data-name="Path 496" d="M331.272,343.492a1.537,1.537,0,0,0-1.1-.458,1.554,1.554,0,0,0-1.117.458,1.568,1.568,0,0,0,2.217,2.217,1.565,1.565,0,0,0,0-2.217Z" transform="translate(-328.61 -337.76)" fill="#fff"/>
      <path id="Path_497" data-name="Path 497" d="M406.541,334.864v6.95a.917.917,0,0,1-.8.979h-11a4.036,4.036,0,0,0,.11-.979V338.9a4.057,4.057,0,0,0-4.025-4.039h-3.123a4.061,4.061,0,0,0-4.041,4.039v3.891h-8.129a4.013,4.013,0,0,0,.112-.979v-2.069a4.061,4.061,0,0,0-4.028-4.039h-4.683a1.029,1.029,0,0,1-.708-.3.947.947,0,0,1-.3-.683v-1.3a.96.96,0,0,1,.3-.681.976.976,0,0,1,.708-.3h5.663V329.4h-5.663a4.039,4.039,0,0,0-2.85,1.191,3.989,3.989,0,0,0-1.2,2.837v1.3a4.085,4.085,0,0,0,4.052,4.028h4.683a.968.968,0,0,1,.694.3,1.033,1.033,0,0,1,.285.694v2.069a.989.989,0,0,1-.979.979H340.9v-7.929h-3.048v12.39a.933.933,0,0,1-.3.681,1.032,1.032,0,0,1-.694.3h-4.225a.989.989,0,0,1-.977-.979v-6.914H328.61v6.914a3.991,3.991,0,0,0,1.177,2.837,3.942,3.942,0,0,0,2.848,1.191h4.225a4.065,4.065,0,0,0,4.041-4.028v-1.413h64.834a3.684,3.684,0,0,0,2.725-1.189,4.124,4.124,0,0,0,1.128-2.839v-6.95Zm-14.747,6.95a.938.938,0,0,1-.3.683,1.015,1.015,0,0,1-.68.3H386.7V338.9a1.036,1.036,0,0,1,.3-.694.921.921,0,0,1,.694-.3h3.123a1,1,0,0,1,.977.991Z" transform="translate(-328.61 -329.374)" fill="#fff"/>
      <path id="Path_498" data-name="Path 498" d="M526.126,329.793a1.573,1.573,0,1,0,.458,1.1A1.545,1.545,0,0,0,526.126,329.793Zm-4.6,0a1.586,1.586,0,0,0-2.23,0,1.56,1.56,0,1,0,2.23,0Z" transform="translate(-445.605 -329.335)" fill="#fff"/>
    </g>
  </g>
</svg>
